<?xml version="1.0" encoding="UTF-8"?>
<svg id="_레이어_2" data-name="레이어 2" xmlns="http://www.w3.org/2000/svg" viewBox="0 0 244.8 46.69">
  <defs>
    <style>
      .cls-1 {
        fill: #831a1f;
      }
    </style>
  </defs>
  <g id="_레이어_1-2" data-name="레이어 1">
    <g>
      <path class="cls-1" d="M0,45.62V1.07h9.49c3.11,0,5.37.18,6.77.54s2.55.97,3.42,1.84c1.03,1.04,1.8,2.32,2.31,3.85s.76,3.34.76,5.44c0,2.56-.36,4.72-1.09,6.45s-1.86,3.16-3.39,4.28c2.61,1.43,3.98,4.81,4.12,10.15v.14c.02.56.03,1.37.05,2.43.06,5.01.73,8.16,2.02,9.43h-9.87c-.22-.93-.38-1.89-.48-2.91s-.15-2.1-.15-3.25c0-.71.02-1.58.05-2.59s.05-1.67.05-1.98c0-2.72-.29-4.58-.87-5.58s-1.62-1.5-3.12-1.5h-1.73v17.82H0ZM8.34,19.61c.14,0,.32,0,.55.03s.39.03.5.03c1.75,0,2.99-.43,3.71-1.3s1.09-2.33,1.09-4.4c0-1.91-.36-3.26-1.09-4.06s-1.96-1.2-3.71-1.2c-.11,0-.28,0-.5.03s-.41.03-.55.03v10.85Z"/>
      <path class="cls-1" d="M25.73,45.62V1.07h8.44v44.55h-8.44Z"/>
      <path class="cls-1" d="M52.41,28.38h8.3c.02.27.03.56.04.87s.01.77.01,1.39c0,5.44-.96,9.47-2.89,12.11s-4.89,3.95-8.87,3.95c-2.34,0-4.35-.48-6.02-1.45s-3.02-2.42-4.05-4.37c-.72-1.39-1.23-3.32-1.55-5.79s-.47-6.38-.47-11.74.16-9.28.47-11.74.83-4.4,1.55-5.79c1.02-1.93,2.35-3.38,4.01-4.35s3.63-1.46,5.93-1.46c3.95,0,6.92,1.35,8.89,4.06s2.96,6.76,2.96,12.16v.43l-8.2-.03c-.03-3.03-.31-5.15-.84-6.38s-1.42-1.84-2.67-1.84c-1.36,0-2.29.75-2.79,2.24s-.75,5.44-.75,11.85v.84c0,6.88.25,11.1.75,12.66s1.43,2.33,2.79,2.33c1.27,0,2.15-.56,2.66-1.69s.76-3.23.76-6.29v-1.97Z"/>
      <path class="cls-1" d="M63.84,45.62V1.07h19.64v8.65h-11.25v8.19h10.38v8.94h-10.38v9.72h11.25v9.05h-19.64Z"/>
      <path class="cls-1" d="M86.31,45.62V1.07h11.81l3.21,18.95c.02.1.14,1.29.39,3.57s.5,4.58.76,6.87c.2-1.72.46-3.84.76-6.38s.48-3.94.53-4.21l3.19-18.8h11.69v44.55h-7.97l.73-34.42-5.72,34.42h-6.42l-5.72-34.42.73,34.42h-7.97Z"/>
      <path class="cls-1" d="M121.48,23.34c0-5.36.16-9.28.47-11.74s.83-4.4,1.55-5.79c1.03-1.97,2.38-3.43,4.05-4.38s3.68-1.43,6.02-1.43,4.36.48,6.01,1.43,2.99,2.42,4.02,4.38c.75,1.41,1.28,3.35,1.59,5.81s.47,6.37.47,11.72-.16,9.22-.47,11.7-.84,4.42-1.59,5.83c-1.02,1.95-2.36,3.4-4.02,4.37s-3.67,1.45-6.01,1.45-4.35-.48-6.02-1.45-3.02-2.42-4.05-4.37c-.72-1.39-1.23-3.32-1.55-5.79s-.47-6.38-.47-11.74ZM137.04,27.36v-8.04c0-4.94-.25-7.99-.76-9.16s-1.43-1.75-2.75-1.75-2.2.6-2.7,1.79-.75,4.23-.75,9.11v8.04c0,4.82.25,7.84.75,9.07s1.41,1.84,2.74,1.84,2.22-.6,2.72-1.79.75-4.23.75-9.11Z"/>
      <path class="cls-1" d="M148.42,45.62V1.07h8.79l7.01,27.48c-.28-4.63-.49-8.62-.62-11.98s-.2-6.19-.2-8.5V1.07h7.52v44.55h-8.81l-7.05-28.32c.31,3.68.55,7.26.71,10.72s.25,6.82.25,10.08v7.52h-7.59Z"/>
      <path class="cls-1" d="M174.43,45.62V1.07h8.44v18.48l6.3-18.48h8.62l-7.83,19.5,8.02,25.05h-8.86l-4.43-16.11-1.83,4.25v11.86h-8.44Z"/>
      <path class="cls-1" d="M199.15,45.62V1.07h19.64v8.65h-11.25v8.19h10.38v8.94h-10.38v9.72h11.25v9.05h-19.64Z"/>
      <path class="cls-1" d="M227.85,45.62v-18.89l-8.3-25.66h9.07l3.49,14.09,3.52-14.09h9.16l-8.3,25.66v18.89h-8.65Z"/>
    </g>
  </g>
</svg>